<svg width="275" height="269" viewBox="0 0 275 269" fill="none" xmlns="http://www.w3.org/2000/svg">
<g clip-path="url(#clip0_33_3380)">
<path d="M0.416359 260.927C-2.46661 258.37 10.3429 258.559 16.6652 258.441C17.5757 259.72 18.2458 259.743 19.8896 260.039C20.6483 261.992 3.29933 263.483 0.416359 260.927Z" fill="#123342"/>
<path d="M98.9884 67.6881C98.402 69.8101 97.9654 76.7042 100.267 82.3616" stroke="#123342" stroke-width="1.73392" stroke-linecap="round"/>
<path d="M97.1233 83.7481C102.587 81.7902 112.992 79.3942 112.992 86.1669V87.3425C112.992 88.136 113.898 88.5854 114.525 88.0995C123.296 81.3036 141.143 67.6882 147.432 57.3821" stroke="#123342" stroke-width="1.73392" stroke-linecap="round"/>
<path d="M121.336 31.3544C126.704 35.5801 135.034 44.7012 126.937 48.4118C126.462 48.6292 126.201 49.1553 126.336 49.6571C127.929 55.5566 127.677 67.7381 115.318 75.9877C115.134 76.1102 114.993 76.2926 114.926 76.5024L112.495 84.1084" stroke="#123342" stroke-width="1.73392" stroke-linecap="round"/>
<path d="M116.024 62.4479C115.833 63.2864 116.329 65.019 119.832 65.2426" stroke="#123342" stroke-width="1.73392" stroke-linecap="round"/>
<path d="M125.422 40.4378C125.422 42.2751 124.866 43.8908 124.026 45.0192C123.186 46.1473 122.123 46.7264 121.055 46.7264C119.987 46.7264 118.923 46.1473 118.083 45.0192C117.243 43.8908 116.688 42.2751 116.688 40.4378C116.688 38.6006 117.243 36.9849 118.083 35.8565C118.923 34.7284 119.987 34.1493 121.055 34.1493C122.123 34.1493 123.186 34.7284 124.026 35.8565C124.866 36.9849 125.422 38.6006 125.422 40.4378Z" stroke="#123342" stroke-width="1.73392" stroke-linecap="round"/>
<path d="M105.158 46.0276L115.989 42.1846" stroke="#123342" stroke-width="1.73392" stroke-linecap="round"/>
<path d="M113.543 38.6911C113.819 37.5266 114.834 34.848 116.688 33.4505" stroke="#123342" stroke-width="1.73392" stroke-linecap="round"/>
<path d="M121.579 41.4858C122.35 41.4858 122.976 41.0166 122.976 40.4378C122.976 39.8591 122.35 39.3899 121.579 39.3899C120.807 39.3899 120.181 39.8591 120.181 40.4378C120.181 41.0166 120.807 41.4858 121.579 41.4858Z" fill="#123342"/>
<path d="M116.827 156.077C116.183 149.209 115.668 134.054 118.757 128.375C121.846 122.696 124.813 114.573 126.9 111.287C133.919 107.235 150.646 91.6894 161.406 61.9239" stroke="#123342" stroke-width="1.73392" stroke-linecap="round"/>
<path d="M97.1232 83.4096L56.9465 130.574" stroke="#123342" stroke-width="1.73392" stroke-linecap="round"/>
<path d="M56.9465 130.719C59.9251 130.316 67.6684 130.512 74.8163 134.513C83.7516 139.516 93.2119 148.314 116.688 156.078" stroke="#123342" stroke-width="1.73392" stroke-linecap="round"/>
<path d="M116.688 156.078L108.652 161.667" stroke="#123342" stroke-width="1.73392" stroke-linecap="round"/>
<path d="M56.951 130.574C56.4066 132.261 55.8663 136.196 60.44 141.055" stroke="#123342" stroke-width="1.73392" stroke-linecap="round"/>
<path d="M86.2931 96.336C79.7912 101.752 63.3055 113.177 49.373 115.553C46.1226 116.892 40.5266 120.654 44.1487 124.986C47.7713 129.319 50.1863 134.595 50.9409 136.691C51.5214 138.613 52.9664 141.293 56.4495 135.143" stroke="#123342" stroke-width="1.73392" stroke-linecap="round"/>
<path d="M45.4173 126.731C42.7183 128.322 36.4242 131.364 32.8405 130.798C29.2569 130.232 26.8679 131.741 26.1213 132.566C25.7193 133.214 25.4667 134.546 27.6719 134.688C29.8771 134.83 32.4959 134.747 33.5296 134.688" stroke="#123342" stroke-width="1.73392" stroke-linecap="round"/>
<path d="M36.3339 132.321C35.1251 133.675 31.0147 136.754 24.2449 138.232C22.9209 138.478 21.1364 139.894 23.5541 141.556C25.6265 142.85 31.3601 141.667 34.2615 139.894" stroke="#123342" stroke-width="1.73392" stroke-linecap="round"/>
<path d="M34.2301 139.657C32.0097 140.775 28.013 143.751 29.7893 146.715C30.3587 147.303 32.7612 147.35 37.8169 142.833L41.5743 139.657" stroke="#123342" stroke-width="1.73392" stroke-linecap="round"/>
<path d="M41.7623 139.725L37.9258 142.929C36.8213 145.837 35.1356 152.9 39.6698 148.983C42.9833 145.6 42.2856 142.716 43.6807 141.861C45.0758 141.007 48.2149 137.707 49.61 136.164" stroke="#123342" stroke-width="1.73392" stroke-linecap="round"/>
<path d="M41.927 134.068C41.4623 135.506 41.0905 138.847 43.321 140.705" stroke="#123342" stroke-width="1.73392" stroke-linecap="round"/>
<path d="M84.1968 251.803C86.3943 251.221 90.8242 248.275 90.9629 241.148C91.1019 234.021 94.0281 221.758 95.4735 216.517L109.7 153.632" stroke="#123342" stroke-width="1.73392" stroke-linecap="round"/>
<path d="M114.941 52.3162C115.327 52.3162 115.64 52.0815 115.64 51.7922C115.64 51.5027 115.327 51.2682 114.941 51.2682C114.555 51.2682 114.242 51.5027 114.242 51.7922C114.242 52.0815 114.555 52.3162 114.941 52.3162Z" fill="#123342"/>
<path d="M117.212 54.4125C117.501 54.4125 117.736 54.2561 117.736 54.063C117.736 53.8702 117.501 53.7138 117.212 53.7138C116.922 53.7138 116.688 53.8702 116.688 54.063C116.688 54.2561 116.922 54.4125 117.212 54.4125Z" fill="#123342"/>
<path d="M112.146 55.8097C112.339 55.8097 112.495 55.4969 112.495 55.111C112.495 54.7253 112.339 54.4125 112.146 54.4125C111.953 54.4125 111.797 54.7253 111.797 55.111C111.797 55.4969 111.953 55.8097 112.146 55.8097Z" fill="#123342"/>
<path d="M60.5257 47.3097C69.0161 31.5285 81.6938 29.5444 86.9715 30.5247C97.9323 13.7397 113.069 8.20244 122.29 13.2207C129.668 17.2351 123.625 27.3523 119.681 31.9092L115.853 26.372C113.209 31.494 105.646 29.602 101.934 28.4484C105.124 35.1393 110.216 52.4321 99.4981 68.0751C88.781 83.7179 75.3144 83.9946 68.5285 79.4958C62.2652 75.0545 52.0351 63.0915 60.5257 47.3097Z" fill="#123342"/>
<path d="M56.2477 253.9C57.4056 255.712 61.2629 259.133 67.4273 258.318" stroke="#123342" stroke-width="1.73392" stroke-linecap="round"/>
<path d="M65.9569 131.622C63.7708 137.875 53.5292 150.728 44.3814 166.882C38.2825 177.014 23.7376 199.64 14.3479 209.089C13.0822 210.884 11.8969 214.96 17.2822 216.905C21.4247 218.642 23.2889 222.672 23.8412 226.98C24.5316 232.364 33.3345 236.359 39.2032 232.364C43.8806 229.18 57.3306 206.244 67.4918 193.283C70.0791 189.983 72.4529 187.33 74.4146 185.814" stroke="#123342" stroke-width="1.73392" stroke-linecap="round"/>
<path d="M67.7432 193.46L56.2477 253.9C62.0907 252.341 78.1412 249.397 88.0398 249.397" stroke="#123342" stroke-width="1.73392" stroke-linecap="round"/>
<path d="M10.5276 248.904C1.00506 230.445 9.83236 218.162 14.6065 215.12C22.0073 217.448 22.2073 225.207 23.4074 228.893L20.6375 236.478C18.784 239.74 19.8653 246.122 20.6375 248.904C23.839 261.797 19.007 263.036 16.6357 259.584L10.5276 248.904Z" fill="#123342"/>
<path d="M61.2994 265.831C58.092 263.291 64.436 262.306 70.8734 261.935C73.116 263.94 88.0118 264.625 88.7387 265.089C81.8855 267.316 64.1104 268.057 61.2994 265.831Z" fill="#123342"/>
<path d="M93.5185 264.743C69.1985 268.077 64.1511 258.458 64.6671 252.835C68.85 251.088 80.3511 250.453 85.7731 250.057C84.2236 253.708 86.1601 253.232 87.5157 254.224C89.2586 255.415 94.0994 256.87 96.8102 257.003C109.009 257.598 99.4565 263.883 93.5185 264.743Z" fill="#123342"/>
<path d="M150.808 26.6296C151.922 25.9892 154.22 25.7562 154.499 29.9486" stroke="#123342" stroke-width="1.73392" stroke-linecap="round"/>
<path d="M148.56 37.8092C148.676 36.179 148.56 32.464 147.162 30.6473C145.416 28.3765 145.066 24.0094 148.56 24.3588C149.669 24.4697 150.374 25.3911 150.807 26.6296C151.466 28.5124 151.495 31.1279 151.355 32.7435" stroke="#123342" stroke-width="1.73392" stroke-linecap="round"/>
<path d="M146.364 42.351C146.222 40.7787 145.625 37.1455 144.367 35.1889C142.795 32.7435 142.621 26.4549 145.94 27.1537" stroke="#123342" stroke-width="1.73392" stroke-linecap="round"/>
<path d="M148.56 54.2294C147.686 54.2294 145.835 53.3909 145.416 50.0368C144.996 46.6831 143.494 44.5639 142.795 43.923C142.388 42.9333 141.957 40.8838 143.494 40.6043C144.399 40.4396 145.47 41.3169 146.364 42.351L147.861 44.447" stroke="#123342" stroke-width="1.73392" stroke-linecap="round"/>
<path d="M156.595 38.6828C157.003 37.9261 157.399 35.9924 155.722 34.3157C153.625 32.2195 154.149 30.298 155.372 29.7739C156.595 29.2499 158.342 29.5993 160.089 34.8397C161.836 39.3815 164.421 50.9104 161.486 60.6925" stroke="#123342" stroke-width="1.73392" stroke-linecap="round"/>
<path d="M164.575 11.3496L167.316 6.36655" stroke="#123342" stroke-width="1.73392" stroke-linecap="round"/>
<path d="M140.874 13.7032L145.765 16.8475" stroke="#123342" stroke-width="1.73392" stroke-linecap="round"/>
<path d="M149.749 1.04034L154.533 12.0421" stroke="#123342" stroke-width="1.73392" stroke-linecap="round"/>
<path d="M166.685 26.4622C166.685 22.7944 167.538 16.6717 171.975 22.2167C174.705 26.2022 175.729 34.1386 173.681 38.1584" stroke="#123342" stroke-width="1.73392" stroke-linecap="round"/>
<path d="M157.641 29.8412C157.073 27.8196 156.788 24.0536 160.201 25.1625L163.955 32.787" stroke="#123342" stroke-width="1.73392" stroke-linecap="round"/>
<path d="M163.955 32.787L160.201 25.1625C159.916 22.9099 161.395 19.271 164.979 22.2167L166.685 26.4622L168.391 30.7076" stroke="#123342" stroke-width="1.73392" stroke-linecap="round"/>
<path d="M168.474 43.5738C167.542 45.6119 166.552 50.2466 170.046 52.4827" stroke="#123342" stroke-width="1.73392" stroke-linecap="round"/>
<path d="M172.841 40.6043C173.656 38.2753 176.125 33.6519 179.479 33.7917C182.832 33.9314 180.177 38.3332 179.479 39.9055L174.587 49.5128C173.539 52.1331 171.967 56.8494 175.635 62.2648C179.304 67.1558 191.954 79.733 205.579 81.829" stroke="#123342" stroke-width="1.73392" stroke-linecap="round"/>
<path d="M203.061 154.846C204.109 158.573 207.952 167.214 214.939 171.965M192.23 148.732L206.03 152.75M205.331 159.737C206.845 154.788 208.79 142.514 204.458 133.011C199.043 121.132 195.724 105.935 198.344 95.8037C200.44 87.6983 208.068 86.4873 211.62 86.8948C217.21 87.5363 226.852 94.2317 226.293 112.398C225.595 135.107 220.354 154.497 212.843 169.52L205.331 159.737Z" stroke="#123342" stroke-width="1.73392" stroke-linecap="round"/>
<path d="M199.742 167.947C199.742 159.039 199.683 152.75 198.694 150.305C212.109 155.335 228.389 154.031 234.853 152.75C235.028 153.158 236.46 157.047 240.792 169.345C246.207 184.717 242.364 236.073 240.792 241.838C239.22 247.603 235.028 247.777 228.913 247.078C224.022 246.52 217.559 233.104 214.939 226.466C202.711 203.583 199.742 178.401 199.742 167.947Z" fill="#123342"/>
<path d="M247.174 121.494C248.907 125.745 252.827 136.552 254.643 145.775C249.636 149.327 235.552 156.069 218.782 153.973L192.23 148.732C191.182 139.94 191.059 117.546 198.046 97.5626C198.046 95.7579 199.881 90.7028 203.934 88.4671" stroke="#123342" stroke-width="1.73392" stroke-linecap="round"/>
<path d="M245.683 136.679C245.608 135.558 247.678 127.398 247.175 121.494C246.894 118.202 246.535 114.095 246.084 109.092C244.827 95.1171 239.854 84.4035 237.525 80.7931C235.196 77.1835 229.685 75.0164 225.318 76.5887" stroke="#123342" stroke-width="1.73392" stroke-linecap="round"/>
<path d="M242.33 230.293C243.836 197.53 237.158 166.573 233.455 154.497C242.792 153.237 250.147 149.201 252.845 147.859C255.556 158.08 259.523 184.322 261.154 196.34C265.22 209.501 264.354 228.427 263.413 236.244C264.015 241.004 260.15 242.895 258.142 243.245C247.45 246.745 243.146 236.069 242.33 230.293Z" fill="#123342"/>
<path d="M157.294 29.2499C160.264 34.0246 164.666 45.6001 161.312 62.09C161.603 65.6421 166.786 77.3874 170.745 82.7025C176.858 90.9126 189.61 100.171 197.471 102.791" stroke="#123342" stroke-width="1.73392" stroke-linecap="round"/>
<path d="M211.492 79.1091C209.181 77.6866 191.797 79.0575 188.417 57.1906C182.631 57.2583 179.484 52.5184 183.899 50.4901C188.606 48.0629 188.253 43.6074 187.4 40.9819C186.044 37.5387 185.962 33.9239 186.254 33.1678" stroke="#123342" stroke-width="1.73392" stroke-linecap="round"/>
<path d="M193.218 49.3308C192.391 49.3405 191.709 48.3432 191.695 47.1031C191.68 45.863 192.338 44.85 193.165 44.8403C193.992 44.8306 194.674 45.8279 194.688 47.068C194.703 48.3081 194.044 49.3211 193.218 49.3308Z" fill="#123342"/>
<path d="M196.746 42.0764C195.78 41.0447 193.284 39.5351 191.022 41.7525" stroke="#123342" stroke-width="1.73392" stroke-linecap="round"/>
<path d="M203.303 62.1708C201.529 64.901 199.581 65.6761 195.797 63.9144" stroke="#123342" stroke-width="1.73392" stroke-linecap="round"/>
<path d="M217.828 43.0335C218.239 43.9365 218.583 45.9857 216.673 46.9612" stroke="#123342" stroke-width="1.73392" stroke-linecap="round"/>
<path d="M238.194 33.7635C240.445 46.0804 233.401 55.3523 228.294 62.4798C222.841 59.5335 213.902 52.5264 217.33 51.7701C220.934 50.9752 224.734 41.1467 221.235 38.14C217.129 34.6124 213.429 39.9499 212.724 43.9969L209.417 38.2784C210.352 34.2787 210.718 27.2626 204.705 31.1958C198.691 35.1289 189.87 34.0987 186.211 33.0919C178.997 27.9281 167.788 15.8832 180.669 9.01445C191.382 3.3015 205.322 10.5242 213.832 17.0142C219.594 15.4931 235.125 16.9698 238.194 33.7635Z" fill="#123342"/>
<path d="M227.894 61.6548C225.289 64.7901 223.996 67.3934 224.157 72.7866" stroke="#123342" stroke-width="1.73392" stroke-linecap="round"/>
<path d="M244.066 267.951C222.405 268.824 212.099 264.478 212.099 261.487C212.099 260.264 211.4 259.042 216.291 257.295C214.195 260.148 214.963 265.575 234.807 264.457C238.01 264.631 245.218 263.793 248.433 259.042H250.005C265.726 255.024 274.984 258.322 274.984 261.312C274.984 264.303 262.058 267.225 244.066 267.951Z" fill="#123342"/>
<path d="M248.125 258.965C259.825 260.083 261.3 250.697 260.576 245.864" stroke="#123342" stroke-width="1.73392" stroke-linecap="round"/>
<path d="M232.627 250.406C232.627 251.163 232.452 252.817 231.753 253.375C230.88 254.074 215.159 252.327 215.508 260.188C215.333 261.294 217.08 262.983 221.272 263.507C227.169 264.244 244.072 266.396 248.125 258.965C248.361 258.533 248.553 258.067 248.698 257.568L250.27 250.93" stroke="#123342" stroke-width="1.73392" stroke-linecap="round"/>
</g>
<defs>
<clipPath id="clip0_33_3380">
<rect width="275" height="268.064" fill="white"/>
</clipPath>
</defs>
</svg>
