<svg width="195" height="192" viewBox="0 0 195 192" fill="none" xmlns="http://www.w3.org/2000/svg">
<g clip-path="url(#clip0_283_12825)">
<path d="M125.381 47.0232C125.381 44.914 126.38 43.8594 127.117 42.7011C129.121 39.5495 129.031 37.8345 128.237 32.6583" stroke="#0E3B4D" stroke-width="0.684135" stroke-linecap="round"/>
<path d="M122.654 35.3747C123.544 35.0766 124.938 33.7864 123.388 31.0102" stroke="#0E3B4D" stroke-width="0.684135" stroke-linecap="round"/>
<path d="M110.205 31.8157C109.306 30.1036 108.283 30.4587 107.884 30.8503C104.949 33.5473 108.726 35.9888 110.981 36.8726C111.261 37.9458 112.113 40.3034 113.278 41.1472" stroke="#0E3B4D" stroke-width="0.684135" stroke-linecap="round"/>
<path d="M108.778 32.5306C108.895 33.0633 109.412 34.1073 110.543 34.0218" stroke="#0E3B4D" stroke-width="0.684135" stroke-linecap="round"/>
<path d="M114.692 28.2469C115.078 28.0188 116.099 27.6257 117.097 27.8778" stroke="#0E3B4D" stroke-width="0.684135" stroke-linecap="round"/>
<path d="M124.506 27.3008C124.966 27.0612 126.179 26.6386 127.348 26.8646" stroke="#0E3B4D" stroke-width="0.684135" stroke-linecap="round"/>
<path d="M128.935 25.3571C129.706 8.30878 119.28 12.7773 110.278 17.2458C106.004 19.3676 104.774 19.9011 101.6 21.52C100.576 24.7519 104.364 29.9289 106.867 32.3567C107.326 30.7118 108.685 30.447 109.307 30.5202C108.542 21.7748 114.108 22.1167 116.986 23.3809C122.422 22.3218 124.123 24.2915 124.295 25.4086C126.436 23.5474 128.713 24.9975 128.935 25.3571Z" fill="#0E3B4D"/>
<path d="M117.237 33.8882C119.344 33.5648 120.79 31.5942 120.467 29.4867C120.144 27.3792 118.173 25.9329 116.065 26.2563C113.958 26.5797 112.512 28.5503 112.835 30.6578C113.158 32.7653 115.129 34.2116 117.237 33.8882Z" stroke="#0E3B4D" stroke-width="0.684135"/>
<path d="M118.631 31.7338C119.086 31.4851 119.207 30.8272 118.9 30.2641C118.593 29.7011 117.974 29.4463 117.518 29.695C117.063 29.9436 116.942 30.6016 117.249 31.1646C117.556 31.7276 118.175 31.9825 118.631 31.7338Z" fill="#0E3B4D"/>
<path d="M130.415 27.9606C130.737 30.0639 129.271 32.0419 127.13 32.3705C124.988 32.6992 122.996 31.2518 122.673 29.1485C122.351 27.0451 123.817 25.0673 125.958 24.7386C128.1 24.4099 130.092 25.8573 130.415 27.9606Z" stroke="#0E3B4D" stroke-width="0.684135"/>
<path d="M128.353 30.3611C128.853 30.1479 129.055 29.4968 128.803 28.9069C128.551 28.3169 127.942 28.0115 127.442 28.2247C126.942 28.4379 126.741 29.089 126.992 29.6789C127.244 30.2689 127.853 30.5743 128.353 30.3611Z" fill="#0E3B4D"/>
<path d="M122.519 29.1447L120.586 29.4689" stroke="#0E3B4D" stroke-width="0.684135" stroke-linecap="round"/>
<path d="M112.632 30.1297L109.89 31.2217" stroke="#0E3B4D" stroke-width="0.684135" stroke-linecap="round"/>
<path d="M124.847 38.2779C124.322 39.1046 122.656 40.4045 120.201 38.9909" stroke="#0E3B4D" stroke-width="0.684135" stroke-linecap="round"/>
<path d="M127.417 16.0119C131.2 14.6164 132.708 12.9325 132.988 12.2649C135.735 5.13263 112.407 15.7966 100.399 22.02C99.5258 22.435 98.556 23.6266 101.666 25.0737" stroke="#0E3B4D" stroke-width="0.684135" stroke-linecap="round"/>
<path d="M109.853 0.472536C112.553 0.107691 121.964 1.09919 126.215 10.3705" stroke="#0E3B4D" stroke-width="0.684135" stroke-linecap="round"/>
<path d="M122.896 11.5228C121.32 7.92338 116.071 1.04985 107.68 2.35084C99.2894 3.65182 99.4361 14.168 100.558 19.2636" stroke="#0E3B4D" stroke-width="0.684135" stroke-linecap="round"/>
<path d="M62.2847 38.8489C63.8503 37.2681 64.2795 35.5964 64.7989 32.9995C65.2731 30.6282 64.9175 27.5453 63.4946 26.656C61.9299 27.6994 60.1547 27.2488 59.4628 26.8931C56.2371 25.1383 52.6248 25.8063 51.2219 26.3596C47.3328 27.5927 42.329 26.3991 40.3133 25.6481C39.424 27.071 38.9502 34.541 40.8819 40.8399C41.7023 39.8543 43.6347 38.8358 44.8136 42.6471C45.2228 43.3316 45.9784 43.9285 45.7151 40.8399C45.3869 36.9796 44.8136 35.2547 44.8136 35.2547C44.8136 35.2547 48.8123 32.4621 48.7454 28.191C50.5765 29.4505 55.7743 31.9692 61.9343 31.9692C61.9343 33.3931 62.2847 36.8121 62.2847 38.8489Z" fill="#0E3B4D"/>
<path d="M44.8788 45.5584C45.9449 52.0652 53.0974 56.7441 58.2598 51.473C63.422 46.202 62.3884 36.5536 61.8371 32.0512" stroke="#0E3B4D" stroke-width="0.684135" stroke-linecap="round"/>
<path d="M40.823 40.3511C40.1968 41.9367 40.7844 45.4497 44.8788 45.4497" stroke="#0E3B4D" stroke-width="0.684135" stroke-linecap="round"/>
<path d="M42.8859 41.2999C42.8134 41.5934 42.8714 42.2891 43.693 42.7227" stroke="#0E3B4D" stroke-width="0.684135" stroke-linecap="round"/>
<path d="M61.8345 44.6196C63.1847 44.0509 64.138 41.9449 63.7712 38.5724" stroke="#0E3B4D" stroke-width="0.684135" stroke-linecap="round"/>
<path d="M54.0088 48.5711C55.268 48.9501 55.1885 47.9067 56.1431 46.9911" stroke="#0E3B4D" stroke-width="0.684135" stroke-linecap="round"/>
<path d="M58.0995 41.181C58.5906 41.181 58.9888 40.7563 58.9888 40.2324C58.9888 39.7084 58.5906 39.2837 58.0995 39.2837C57.6083 39.2837 57.2103 39.7084 57.2103 40.2324C57.2103 40.7563 57.6083 41.181 58.0995 41.181Z" fill="#0E3B4D"/>
<path d="M50.2739 41.1811C50.8305 41.1811 51.2816 40.8095 51.2816 40.3511C51.2816 39.8927 50.8305 39.5211 50.2739 39.5211C49.7171 39.5211 49.266 39.8927 49.266 40.3511C49.266 40.8095 49.7171 41.1811 50.2739 41.1811Z" fill="#0E3B4D"/>
<path d="M48.3174 38.3354C48.5125 37.8343 49.356 36.9077 51.1631 37.2083" stroke="#0E3B4D" stroke-width="0.684135" stroke-linecap="round"/>
<path d="M56.6174 37.268C57.0483 36.9997 58.2212 36.6238 59.4632 37.268" stroke="#0E3B4D" stroke-width="0.684135" stroke-linecap="round"/>
<path d="M53.6293 39.9952C53.4928 41.1282 53.3979 43.4259 54.1273 43.5523" stroke="#0E3B4D" stroke-width="0.684135" stroke-linecap="round"/>
<path d="M56.5617 11.543C41.2303 8.04236 39.81 21.3692 40.1692 25.475C40.1782 25.5772 40.2436 25.6581 40.3399 25.6935C42.2921 26.4101 47.032 27.4739 51.6409 26.4008C56.3772 25.2979 58.0994 26.4008 60.0986 27.09C60.8674 27.3197 62.6051 27.5648 63.4047 26.7071C64.4043 25.6348 65.628 13.6131 56.5617 11.543Z" stroke="#0E3B4D" stroke-width="0.684135" stroke-linecap="round"/>
<path d="M46.4795 22.8022C49.2461 22.5059 55.728 22.233 59.5224 23.5137" stroke="#0E3B4D" stroke-width="0.684135" stroke-linecap="round"/>
<path d="M51.6966 12.2498C51.3804 13.8703 50.8428 17.6567 51.2222 19.8384" stroke="#0E3B4D" stroke-width="0.684135" stroke-linecap="round"/>
<path d="M54.2459 12.4272C54.6808 13.9488 55.4198 17.5613 54.8981 19.838" stroke="#0E3B4D" stroke-width="0.684135" stroke-linecap="round"/>
<path d="M47.4243 57.2066C36.5157 61.4752 29.0457 79.913 33.9664 87.6202C35.4003 89.8662 38.9465 92.1261 42.9186 92.4817" stroke="#0E3B4D" stroke-width="0.684135" stroke-linecap="round"/>
<path d="M43.808 188.113C48.7419 185.786 60.7519 181.285 69.3209 181.879C70.5357 181.928 72.3705 182.444 69.9904 184.105C67.61 185.767 66.42 186.629 66.1225 186.851C64.8829 187.89 63.6677 190.086 68.7258 190.56C75.0482 191.154 92.9 184.699 128.231 189.447" stroke="#0E3B4D" stroke-width="0.684135" stroke-linecap="round"/>
<path d="M4.20483 143.764V139.495" stroke="#0E3B4D" stroke-width="0.684135" stroke-linecap="round"/>
<path d="M0.410522 141.868L2.66339 143.764" stroke="#0E3B4D" stroke-width="0.684135" stroke-linecap="round"/>
<path d="M5.74628 143.764L7.52486 141.037" stroke="#0E3B4D" stroke-width="0.684135" stroke-linecap="round"/>
<path d="M93.371 169.375V163.091" stroke="#0E3B4D" stroke-width="0.684135" stroke-linecap="round"/>
<path d="M87.6795 166.648L91.1181 169.375" stroke="#0E3B4D" stroke-width="0.684135" stroke-linecap="round"/>
<path d="M95.7424 169.375L98.2324 165.345" stroke="#0E3B4D" stroke-width="0.684135" stroke-linecap="round"/>
<path d="M44.6382 136.472C42.5392 134.016 38.2745 104.161 39.3022 91.8297C40.31 92.3039 41.8515 92.7782 42.9787 92.5411L44.4608 93.4897V96.5133C54.4208 102.774 67.029 101.889 72.0881 100.663C76.2974 133.923 72.0881 136.472 66.9297 135.82C63.4948 135.386 59.5781 126.729 58.7481 122.066C58.7876 123.567 58.1671 128.468 55.606 134.16C52.4045 141.274 47.425 139.733 44.6382 136.472Z" fill="#0E3B4D"/>
<path d="M39.2429 85.2487C41.7922 83.5886 45.0921 82.6527 43.1391 84.906C41.1851 87.1594 44.3912 86.4082 46.2375 85.751C46.9892 85.4693 48.4915 85.169 48.4915 86.2205C48.4915 86.5824 48.1132 86.9101 47.5524 87.1945C46.4829 87.7368 44.7493 88.1218 43.7023 88.286" stroke="#0E3B4D" stroke-width="0.684135" stroke-linecap="round"/>
<path d="M45.2045 91.0985C45.1103 91.6655 44.5835 92.4447 43.2743 92.6612" stroke="#0E3B4D" stroke-width="0.684135" stroke-linecap="round"/>
<path d="M46.9572 89.037C47.505 89.5506 47.7183 90.5488 45.2047 91.0981C44.6545 91.2181 43.975 91.3167 43.1392 91.3842" stroke="#0E3B4D" stroke-width="0.684135" stroke-linecap="round"/>
<path d="M47.5524 87.1947C48.2295 87.5359 48.6848 88.2523 46.9572 89.0372C46.209 89.3769 45.0517 89.7295 43.3265 90.07" stroke="#0E3B4D" stroke-width="0.684135" stroke-linecap="round"/>
<path d="M44.1043 86.1973V72.3637C44.1043 72.1157 44.4175 71.9839 44.6089 72.1417C47.2537 74.3223 54.5917 76.8597 68.6488 74.3401C87.5017 70.9608 99.181 70.5457 113.054 73.1543C124.152 75.2412 126.966 76.9882 126.986 77.6008V86.968" stroke="#0E3B4D" stroke-width="0.684135" stroke-linecap="round"/>
<path d="M96.8095 96.2763C92.4817 96.7307 82.1659 98.0667 75.526 99.7741C67.2259 101.908 60.7044 102.383 52.1079 99.7741C45.2307 97.6873 44.5787 96.8098 44.5786 96.2763V93.5491" stroke="#0E3B4D" stroke-width="0.684135" stroke-linecap="round"/>
<path d="M46.1833 140.562C44.879 142.025 41.5353 145.127 38.5947 145.838C34.919 146.728 39.5432 149.218 45.5904 147.914C51.6376 146.61 52.1712 145.838 53.7126 140.562" stroke="#0E3B4D" stroke-width="0.684135" stroke-linecap="round"/>
<path d="M67.7634 139.081C67.882 141.294 68.878 145.637 71.9135 145.306C75.7077 144.89 81.2806 142.934 83.4743 141.393C85.6677 139.851 86.0827 138.072 83.4743 137.894C80.8657 137.716 74.5221 140.978 73.2177 137.124" stroke="#0E3B4D" stroke-width="0.684135" stroke-linecap="round"/>
<path d="M109.981 141.393C110.357 143.25 110.088 147.06 106.009 147.439C100.91 147.914 94.0924 148.923 95.9303 146.372C97.7681 143.823 100.792 145.899 103.4 142.163" stroke="#0E3B4D" stroke-width="0.684135" stroke-linecap="round"/>
<path d="M124.137 140.562C123.88 142.302 124.374 145.828 128.406 146.016C133.445 146.254 141.627 147.617 141.271 144.476C140.738 142.4 133.421 141.274 132.141 140.562" stroke="#0E3B4D" stroke-width="0.684135" stroke-linecap="round"/>
<path d="M100.189 127.401C100.545 123.488 100.999 108.311 101.315 102.027C102.916 102.086 106.046 101.031 105.762 96.3353C111.453 95.7662 122.224 100.09 126.69 102.264V86.3752H132.085C133.508 90.1696 135.049 107.56 135.642 115.781C136.096 122.322 135.559 136.021 129.773 138.488C123.986 140.954 118.627 134.298 116.67 130.662C115.524 133.409 111.928 138.974 106.71 139.258C100.189 139.614 99.8332 131.314 100.189 127.401Z" fill="#0E3B4D"/>
<path d="M104.398 98.1221C105.406 97.1142 105.88 94.387 104.398 94.5649" stroke="#0E3B4D" stroke-width="0.684135" stroke-linecap="round"/>
<path d="M96.9282 97.521C98.0941 95.6633 100.711 91.9955 101.849 92.1852C102.987 92.3749 101.177 95.8215 100.13 97.521" stroke="#0E3B4D" stroke-width="0.684135" stroke-linecap="round"/>
<path d="M101.886 94.2422C102.15 93.4128 102.883 92.2466 103.834 92.8875C105.024 93.6885 103.678 96.3774 102.9 97.7317" stroke="#0E3B4D" stroke-width="0.684135" stroke-linecap="round"/>
<path d="M132.143 85.0711C134.99 77.8386 132.51 64.8073 131.385 61.8996C131.322 61.737 131.408 61.5559 131.576 61.5124C138.862 59.6336 153.252 53.5767 153.664 48.7177C154.375 40.3228 141.589 43.8365 135.107 46.6427L126.712 49.306C126.594 49.3437 126.515 49.4567 126.522 49.5809L126.828 55.5005C126.841 55.7551 126.529 55.8878 126.355 55.7019L121.83 50.879C121.679 50.7177 121.409 50.7933 121.363 51.0098L119.819 58.3275C119.77 58.5588 119.471 58.6236 119.331 58.433L114.256 51.5228C114.177 51.4156 114.037 51.3792 113.916 51.4344C110.707 52.8987 101.132 54.8392 98.2324 71.0204" stroke="#0E3B4D" stroke-width="0.684135" stroke-linecap="round"/>
<path d="M154.258 47.3542C155.04 47.2969 156.359 46.52 156.714 44.7023C156.737 44.587 156.826 44.4946 156.942 44.4747C158.873 44.1405 160.493 43.9443 160.779 43.0264C161.206 41.6626 157.796 42.2161 156.273 42.6706" stroke="#0E3B4D" stroke-width="0.684135" stroke-linecap="round"/>
<path d="M151.708 43.7967C154.356 41.5043 161.195 37.7496 163.21 38.9352C164.957 39.9635 163.091 40.6743 161.253 41.2473" stroke="#0E3B4D" stroke-width="0.684135" stroke-linecap="round"/>
<path d="M161.668 42.4329C162.518 43.1049 163.151 44.7688 158.882 46.0494" stroke="#0E3B4D" stroke-width="0.684135" stroke-linecap="round"/>
<path d="M162.735 44.5083C163.447 45.1803 163.731 46.8323 159.179 48.0656" stroke="#0E3B4D" stroke-width="0.684135" stroke-linecap="round"/>
<path d="M105.465 96.454C105.88 98.1733 105.05 101.968 101.553 101.968C97.521 101.968 96.5724 99.7148 93.9638 96.6318" stroke="#0E3B4D" stroke-width="0.684135" stroke-linecap="round"/>
<path d="M110.09 71.3871C110.268 70.6362 110.671 69.0986 110.86 68.9565C111.098 68.7786 112.165 70.7846 112.343 72.2075" stroke="#0E3B4D" stroke-width="0.684135" stroke-linecap="round"/>
<path d="M61.4158 78.3121C61.4949 81.6716 61.4158 89.695 60.4673 94.9121" stroke="#0E3B4D" stroke-width="0.684135" stroke-linecap="round"/>
<path d="M75.5852 78.3121C75.2692 81.6716 74.8264 89.2918 75.5852 92.8965" stroke="#0E3B4D" stroke-width="0.684135" stroke-linecap="round"/>
<path d="M89.9325 76.8893C90.5252 79.8536 91.3554 87.2051 89.9325 92.8965" stroke="#0E3B4D" stroke-width="0.684135" stroke-linecap="round"/>
<path d="M109.2 78.3121C108.884 81.3554 108.442 88.1774 109.2 91.1179" stroke="#0E3B4D" stroke-width="0.684135" stroke-linecap="round"/>
<path d="M172.383 146.532L171.298 150.239C171.213 150.53 171.329 150.846 171.596 150.99C173.881 152.223 176.035 151.628 177.156 150.991C177.406 150.849 177.502 150.547 177.417 150.272L176.287 146.569C176.244 146.43 176.158 146.305 176.036 146.224C174.543 145.236 173.198 145.752 172.577 146.233C172.48 146.308 172.417 146.416 172.383 146.532Z" fill="#0E3B4D"/>
<path d="M167.835 161.206L169.564 155.147C173.631 157.503 177.604 156.129 179.082 155.147L180.758 161.206C175.567 164.406 169.979 162.54 167.835 161.206Z" fill="#0E3B4D"/>
<path d="M164.041 172.168L166.146 166.412C172.454 169.834 179.865 167.838 182.782 166.412L184.671 172.168C176.073 176.774 167.334 174.088 164.041 172.168Z" fill="#0E3B4D"/>
<path d="M162.278 176.35L163.467 173.925C161.431 174.823 156.935 176.867 155.248 177.857C153.561 178.849 154.546 180.138 155.248 180.66C160.673 183.533 171.817 189.463 172.984 190.195C174.152 190.928 175.489 190.5 176.012 190.195C180.788 187.699 190.903 182.362 193.152 180.983C195.401 179.603 194.089 178.217 193.152 177.696L185.312 173.764L186.502 176.025C187.043 177.696 185.726 178.666 185.204 179.15C177.721 184.711 167.991 181.791 164.063 179.636C162.029 178.429 162.025 176.942 162.278 176.35Z" fill="#0E3B4D"/>
<path d="M44.8751 66.5735L45.0988 66.2344C46.4473 64.1997 49.0476 63.3872 51.3233 64.2904C53.3653 65.1005 55.6994 64.536 57.1387 62.8839L58.9851 60.7635" stroke="#0E3B4D" stroke-width="0.684135" stroke-linecap="round"/>
<path d="M57.6918 55.7967C58.2105 54.3411 57.7363 53.3616 57.2761 53.175C54.503 55.6384 50.297 54.7238 48.7389 53.2308C48.1838 53.7235 48.5069 55.181 48.7389 55.6288C51.742 58.8536 56.0168 57.0472 57.6918 55.7967Z" fill="#0E3B4D"/>
<path d="M59.6372 55.191C64.9137 57.7996 70.9609 62.9575 71.3759 72.6803" stroke="#0E3B4D" stroke-width="0.684135" stroke-linecap="round"/>
</g>
<defs>
<clipPath id="clip0_283_12825">
<rect width="194.431" height="191.011" fill="white"/>
</clipPath>
</defs>
</svg>
