<svg width="342" height="224" viewBox="0 0 342 224" fill="none" xmlns="http://www.w3.org/2000/svg">
<path fill-rule="evenodd" clip-rule="evenodd" d="M318.413 144.8C313.553 140.554 297.945 126.029 297.945 114.695C297.945 101.272 306.702 92.3232 319.838 92.3232C332.972 92.3232 341.728 103.509 341.728 114.695C341.728 124.186 325.97 140.119 321.194 144.73C320.413 145.482 319.225 145.511 318.413 144.8ZM327.135 111.712C327.135 115.83 323.868 119.169 319.838 119.169C315.808 119.169 312.538 115.83 312.538 111.712C312.538 107.594 315.808 104.255 319.838 104.255C323.868 104.255 327.135 107.594 327.135 111.712Z" fill="#1EA97C"/>
<path d="M200.965 168.747C209.977 176.242 258.662 169.777 253.547 167.117C234.707 157.32 272.575 151.772 285.811 162.108C294.056 168.548 315.233 164.048 319.838 158.728" stroke="#123342" stroke-width="2.89096" stroke-miterlimit="3.99933" stroke-linecap="round" stroke-dasharray="8.67 4.34"/>
<path d="M30.4686 194.827C27.646 198.72 23.4655 202.518 21.9686 203.146L21.3271 206.285C28.8649 203.931 30.9497 199.065 30.4686 194.827Z" fill="#123342"/>
<path d="M18.546 183.354C19.4313 191.941 18.1715 201.186 17.1878 205.784C17.1099 206.148 17.3863 206.489 17.7585 206.489H21.0991C21.3556 206.489 21.5821 206.321 21.6497 206.073C23.7738 198.291 21.772 189.112 19.6254 183.05C19.3974 182.407 18.4759 182.675 18.546 183.354Z" fill="#123342"/>
<path d="M22.527 195.786C26.7956 196.565 32.4872 194.357 35.6493 189.751" stroke="#123342" stroke-width="1.44548" stroke-linecap="round"/>
<path d="M2.84261 185.944C0.107436 190.664 9.30831 201.129 18.6858 196.565" stroke="#123342" stroke-width="1.44548" stroke-linecap="round"/>
<path d="M7.2303 170.798C1.67033 171.584 -1.37853 179.208 2.84258 185.943C3.61086 187.169 6.94514 188.5 8.50805 188.5" stroke="#123342" stroke-width="1.44548" stroke-linecap="round"/>
<path d="M35.649 180.144C35.649 174.294 34.0879 168.071 24.742 165.29C14.899 162.362 9.55025 166.786 7.23035 170.798C6.12777 172.704 6.55444 174.535 7.23035 176.108" stroke="#123342" stroke-width="1.44548" stroke-linecap="round"/>
<path d="M21.7365 187.462C23.3786 185.779 26.8279 182.801 25.5507 176.005" stroke="#123342" stroke-width="1.44548" stroke-linecap="round"/>
<path d="M18.4628 190.735C17.1746 190.338 13.9799 188.349 11.5065 183.575" stroke="#123342" stroke-width="1.44548" stroke-linecap="round"/>
<path d="M44.9442 169.532L49.6235 171.494C49.8918 171.607 50.0667 171.87 50.0667 172.161V184.18C50.0667 184.707 49.52 185.057 49.041 184.836L44.362 182.678C44.1058 182.56 43.9419 182.303 43.9419 182.021V170.199C43.9419 169.682 44.468 169.332 44.9442 169.532Z" stroke="#123342" stroke-width="1.44548"/>
<path d="M59.2662 177.307L63.9455 179.269C64.214 179.381 64.3886 179.644 64.3886 179.935V191.955C64.3886 192.482 63.8423 192.832 63.3632 192.611L58.6839 190.452C58.4281 190.334 58.2642 190.078 58.2642 189.796V177.973C58.2642 177.457 58.79 177.107 59.2662 177.307Z" stroke="#123342" stroke-width="1.44548"/>
<path d="M44.9442 146.208L49.6235 148.17C49.8918 148.283 50.0667 148.546 50.0667 148.837V160.856C50.0667 161.383 49.52 161.733 49.041 161.512L44.362 159.353C44.1058 159.236 43.9419 158.979 43.9419 158.697V146.874C43.9419 146.358 44.468 146.008 44.9442 146.208Z" stroke="#123342" stroke-width="1.44548"/>
<path d="M59.2662 153.778L63.9455 155.74C64.214 155.853 64.3886 156.116 64.3886 156.407V168.426C64.3886 168.954 63.8423 169.303 63.3632 169.082L58.6839 166.924C58.4281 166.806 58.2642 166.549 58.2642 166.268V154.445C58.2642 153.928 58.79 153.578 59.2662 153.778Z" stroke="#123342" stroke-width="1.44548"/>
<path d="M50.1758 199.219V211.11C50.1758 211.449 50.3729 211.757 50.6808 211.898L55.4934 214.108C56.0681 214.372 56.7229 213.953 56.7229 213.32V201.313C56.7229 200.968 56.518 200.656 56.2017 200.518L51.3891 198.424C50.8161 198.175 50.1758 198.594 50.1758 199.219Z" fill="#123342"/>
<path d="M72.0677 222.039L36.1335 204.358C35.8368 204.212 35.6489 203.91 35.6489 203.579V130.379" stroke="#123342" stroke-width="1.44548" stroke-linecap="round"/>
<path d="M71.1773 222.059V147.976L34.7918 131.23C34.0511 130.889 34.1477 129.807 34.9375 129.602L67.2893 121.236C67.4523 121.194 67.6241 121.2 67.7836 121.254L100.916 132.433V207.871C100.916 208.198 100.732 208.497 100.441 208.645L72.4366 222.833C71.8596 223.125 71.1773 222.706 71.1773 222.059Z" fill="#123342"/>
<path d="M122.604 203.611L100.667 197.692V208.091L79.8425 218.97L122.604 203.611Z" fill="#123342"/>
<path d="M177.343 122.604L154.934 128.469C154.491 128.585 154.352 129.146 154.69 129.455L171.781 145.109C171.921 145.237 172.116 145.288 172.301 145.246L195.887 139.799C196.323 139.698 196.484 139.162 196.176 138.838L181.64 123.517" stroke="#123342" stroke-width="1.44548" stroke-linecap="round"/>
<path d="M196.664 139.381L200.914 116.448C200.946 116.273 200.896 116.093 200.778 115.959L186.206 99.5116C185.894 99.1586 185.313 99.3081 185.209 99.7681L180.505 120.709" stroke="#123342" stroke-width="1.44548" stroke-linecap="round"/>
<path d="M154.112 129.15L161.068 106.949C161.125 106.768 161.268 106.625 161.45 106.57L185.824 99.0744" stroke="#123342" stroke-width="1.44548" stroke-linecap="round"/>
<path d="M176.536 102.915L171.407 123.795C171.362 123.977 171.409 124.17 171.532 124.312L177.821 131.558C178.109 131.889 177.937 132.408 177.508 132.502L171.662 133.785C171.46 133.829 171.25 133.762 171.111 133.609L164.557 126.406C164.423 126.259 164.374 126.054 164.427 125.863L170.473 104.073C170.526 103.88 170.675 103.729 170.867 103.672L175.811 102.222C176.239 102.096 176.642 102.481 176.536 102.915Z" fill="#123342"/>
<path d="M170.071 113.601L172.526 72.8859" stroke="#123342" stroke-width="1.44548" stroke-linecap="round"/>
<path d="M170.07 113.601L161.068 76.7733" stroke="#123342" stroke-width="1.44548" stroke-linecap="round"/>
<path d="M169.456 113.602L149.61 88.2311" stroke="#123342" stroke-width="1.44548" stroke-linecap="round"/>
<path d="M169.661 113.601L134.879 91.5045" stroke="#123342" stroke-width="1.44548" stroke-linecap="round"/>
<path d="M137.539 84.5481L157.794 103.371" stroke="#123342" stroke-width="1.44548" stroke-linecap="round"/>
<path d="M164.956 74.7272L167.82 98.2561" stroke="#123342" stroke-width="1.44548" stroke-linecap="round"/>
<path d="M163.319 101.121L154.521 79.0243" stroke="#123342" stroke-width="1.44548" stroke-linecap="round"/>
<path d="M119.996 50.9077C98.4565 44.4736 90.8603 57.2641 90.08 64.5282C89.5642 88.182 115.449 90.8575 127.729 88.589C127.938 88.5505 128.144 88.628 128.279 88.7916L130.966 92.0454C131.27 92.4126 131.862 92.2761 131.974 91.8133L132.563 89.3797C132.595 89.2473 132.673 89.1305 132.783 89.0498L134.008 88.1496C134.416 87.8498 134.269 87.2074 133.771 87.1152L130.837 86.5705C130.334 86.4774 130.158 85.7796 130.498 85.3977C131.78 83.9597 133.181 81.3232 132.613 77.7595" stroke="#123342" stroke-width="1.44548" stroke-linecap="round"/>
<path d="M145.193 86.3853V84.7027C145.193 84.3249 144.844 84.0219 144.467 83.9852C138.419 83.3934 111.17 66.7745 122.441 44.0255C129.852 29.0677 147.793 35.8314 152.214 42.465C159.685 52.3457 153.836 77.1137 148.242 82.5238C148.006 82.7519 147.97 83.1243 148.182 83.3749L149.707 85.1786C150.046 85.5793 149.713 86.2517 149.191 86.2985C148.059 86.4006 146.853 86.6908 145.975 86.9533C145.591 87.0678 145.193 86.7857 145.193 86.3853Z" stroke="#123342" stroke-width="1.44548" stroke-linecap="round"/>
<path d="M156.086 70.6234C156.678 70.9651 157.732 71.4045 158.589 71.5881C158.999 71.6757 159.336 72.1151 159.214 72.5155L158.57 74.6361C158.422 75.1266 158.938 75.5539 159.392 75.3163L160.597 74.6861C160.787 74.5869 161.016 74.6005 161.192 74.7216L161.89 75.2009C162.307 75.4872 162.865 75.1376 162.789 74.6375L162.421 72.2134C162.375 71.9064 162.576 71.6191 162.879 71.5494C169.664 69.9865 183.532 62.1532 182.265 42.5326C181.87 36.4202 174.32 25.444 158.17 28.3571C155.175 28.8974 148.532 31.9465 145.927 36.9403" stroke="#123342" stroke-width="1.44548" stroke-linecap="round"/>
<path d="M171.094 67.9143V70.3274C171.094 70.6954 171.433 70.9701 171.793 70.8926L172.608 70.7177C172.8 70.6766 173 70.7356 173.139 70.8747L173.751 71.4881C174.116 71.8527 174.739 71.5948 174.739 71.0796V68.4468C174.739 68.1459 174.967 67.8964 175.266 67.8626C181.814 67.1216 195.072 62.0763 199.734 47.0578C204.525 31.6239 194.18 26.2011 188.408 25.4189" stroke="#123342" stroke-width="1.44548" stroke-linecap="round"/>
<path d="M180.167 36.672C185.242 32.7736 195.774 19.7345 185.112 7.5648C174.182 -4.9097 148.939 4.7059 155.054 28.7455" stroke="#123342" stroke-width="1.44548" stroke-linecap="round"/>
<path d="M156.771 11.2043C147.999 9.32626 130.87 11.545 132.538 35.4445" stroke="#123342" stroke-width="1.44548" stroke-linecap="round"/>
<path d="M149.406 10.6384C144.723 4.03888 129.637 -5.25239 117.539 6.47027C106.048 17.6044 116.109 33.954 124.694 39.9458" stroke="#123342" stroke-width="1.44548" stroke-linecap="round"/>
<path d="M112.373 21.3938C101.996 20.3531 84.1732 31.5137 97.9749 52.2213" stroke="#123342" stroke-width="1.44548" stroke-linecap="round"/>
</svg>
